# xmcd
#
# Track frame offsets:
#	150
#	12555
#	32145
#	42186
#	50613
#	61653
#	72413
#	85341
#	98646
#	111160
#	121931
#	133166
#	143481
#	154373
#	168109
#	179559
#	190593
#	201640
#	214086
#	226205
#	236273
#	246153
#	257778
#	269945
#
# Disc length: 3734
#
# Revision: 1
# Processed by: cddbd v1.5.1PL0 Copyright (c) Steve Scherf et al.
# Submitted via: EasyCDDAExtractor 4.5.2.1
# Normalized: r0:TDELIM( - )
#
DISCID=600e9418
DTITLE=Various Artist - Rare and Unreleased Group Harmony Gems  Vol 10
DYEAR=1900
DGENRE=Blues
TTITLE0=Aladdins - Then
TTITLE1=Romanairs - Is It Too Late
TTITLE2=P.F. Flyers - Heartaches Of Love
TTITLE3=Del-Lords - Desire (ACAP) (unr)
TTITLE4=Gary Whitby and Group - Love Sincere
TTITLE5=Rocky and The Millionairs - Remember Me
TTITLE6=Clee-Shats - My Dream
TTITLE7=Exciting Avantis - My Plea
TTITLE8=Graduates - What Good Is Graduation
TTITLE9=Velvetones - Tell Me (unr)
TTITLE10=Rip-Chords - Razzle Dazzle
TTITLE11=Companions - I Didn"t Know
TTITLE12=Sentimentals - Wild Baby
TTITLE13=Dale and The Cashmeres - Last Night
TTITLE14=Five Keys - No Matter
TTITLE15=Dinos - Our Love Is About Over
TTITLE16=Maria and The Twilights - I Was Too Careful
TTITLE17=Jay and The Americans - Mexican Divorce (unr)
TTITLE18=King Bees - Can't You Understand
TTITLE19=Bob and The Four Gates - A Teenager In Love
TTITLE20=Exciting Voices - Didn't It Rain
TTITLE21=Modern Inkspots - Remember
TTITLE22=Rhondells - Waiting In The Rain (unr)
TTITLE23=Channells - You Hurt Me
EXTD=
EXTT0=
EXTT1=
EXTT2=
EXTT3=
EXTT4=
EXTT5=
EXTT6=
EXTT7=
EXTT8=
EXTT9=
EXTT10=
EXTT11=
EXTT12=
EXTT13=
EXTT14=
EXTT15=
EXTT16=
EXTT17=
EXTT18=
EXTT19=
EXTT20=
EXTT21=
EXTT22=
EXTT23=
PLAYORDER=
